<?xml version="1.0" encoding="UTF-8"?>
<svg version="1.1" xmlns="http://www.w3.org/2000/svg" width="2000" height="1500">
<path d="M0 0 C660 0 1320 0 2000 0 C2000 495 2000 990 2000 1500 C1340 1500 680 1500 0 1500 C0 1005 0 510 0 0 Z " fill="#FEFEFE" transform="translate(0,0)"/>
<path d="M0 0 C374.88 0 749.76 0 1136 0 C1136 110.88 1136 221.76 1136 336 C761.12 336 386.24 336 0 336 C0 225.12 0 114.24 0 0 Z " fill="#000000" transform="translate(599,582)"/>
<path d="M0 0 C12.84459582 9.54804397 22.62907411 23.98653335 25 40 C25.25622624 43.50625382 25.28069255 46.98570308 25.25 50.5 C25.26160156 51.82837891 25.26160156 51.82837891 25.2734375 53.18359375 C25.23487457 66.31427011 20.83252683 77.86551183 14 89 C17.07824398 92.70219123 17.07824398 92.70219123 21.37164307 94.38539124 C24.89321373 95.20886699 26.32847814 96.84037099 28.86621094 99.39624023 C29.32375259 99.85159149 29.78129425 100.30694275 30.25270081 100.77609253 C31.7564021 102.27748993 33.2453541 103.79264727 34.734375 105.30859375 C35.77778123 106.35692528 36.82200333 107.40444536 37.86700439 108.45118713 C40.05172451 110.64353859 42.22982752 112.84217915 44.40283203 115.04614258 C47.1909014 117.87385951 49.989701 120.69063329 52.79281235 123.50343227 C55.46438285 126.1849654 58.13096387 128.87143589 60.796875 131.55859375 C61.30705925 132.07217375 61.8172435 132.58575375 62.34288788 133.11489677 C63.78178215 134.56534531 65.21667495 136.01976017 66.65136719 137.47436523 C67.4690155 138.30185776 68.28666382 139.12935028 69.12908936 139.98191833 C71.6006605 142.64791012 71.96667171 143.56673221 72.25 147.25 C71.97374042 151.39389365 71.33381639 153.5770693 69 157 C64.98387205 159.67741863 61.79725776 160.69960009 57 160 C52.9433222 157.54759314 49.56528537 154.82308788 46.20385742 151.49438477 C45.30660446 150.60989151 44.4093515 149.72539825 43.48490906 148.81410217 C42.52469203 147.85694158 41.56488827 146.89936623 40.60546875 145.94140625 C39.60767255 144.95004541 38.60973004 143.95883181 37.61164856 142.96775818 C35.52961452 140.89764991 33.45170512 138.82349996 31.3762207 136.74682617 C28.71875479 134.08915626 26.04774862 131.44555643 23.37307262 128.80522251 C21.31160018 126.76599135 19.25928629 124.71773031 17.20943642 122.66682243 C16.22826598 121.68800811 15.24385979 120.712426 14.25615501 119.74020576 C12.87768357 118.38135376 11.51309807 117.00845882 10.14916992 115.63500977 C9.3700676 114.85875748 8.59096527 114.08250519 7.78825378 113.2827301 C5.810738 110.7584045 5.52857946 109.10533644 5 106 C2.54366927 103.68392126 2.54366927 103.68392126 0 102 C-0.7734375 102.47050781 -1.546875 102.94101562 -2.34375 103.42578125 C-18.03063275 112.80296488 -35.97565528 116.40567343 -54.125 111.875 C-55.77082845 111.30711031 -57.39733475 110.68023091 -59 110 C-59.96679688 109.5978125 -60.93359375 109.195625 -61.9296875 108.78125 C-78.54303528 101.17208308 -89.38947957 88.84550067 -96 72 C-96.34160156 71.15179687 -96.68320312 70.30359375 -97.03515625 69.4296875 C-101.62146845 55.82007271 -100.28903285 38.70553504 -94.55859375 25.73828125 C-90.73295934 18.09588861 -86.05777214 11.99400611 -80 6 C-79.40960938 5.37609375 -78.81921875 4.7521875 -78.2109375 4.109375 C-73.99232342 -0.01631807 -69.21899866 -2.66373078 -64 -5.3125 C-63.33540771 -5.65039551 -62.67081543 -5.98829102 -61.98608398 -6.33642578 C-42.16581101 -15.96028297 -17.9259136 -11.86677188 0 0 Z " fill="#020202" transform="translate(455,701)"/>
<path d="M0 0 C1.01869171 -0.0071553 2.03738342 -0.01431061 3.08694458 -0.02168274 C6.44807052 -0.03856345 9.80786108 -0.01916404 13.16894531 0.00219727 C15.51296092 0.00136826 17.85697646 -0.00109231 20.20098877 -0.00511169 C25.11366274 -0.00796963 30.02588082 0.00672733 34.93847656 0.03417969 C41.21743724 0.06818641 47.49557876 0.06226882 53.77457809 0.04351711 C58.61666613 0.03291466 63.45856574 0.04191578 68.30063629 0.05690193 C70.61454966 0.06206544 72.92848286 0.06162432 75.24239349 0.05535698 C78.48754177 0.04986876 81.7315449 0.07039911 84.9765625 0.09765625 C85.92236176 0.09113037 86.86816101 0.08460449 87.84262085 0.07788086 C96.12493728 0.19537339 103.40960034 2.20932098 109.62207031 7.88110352 C115.07610531 13.84967012 117.88402294 20.55581505 117.84472656 28.61157227 C117.84150391 29.77495117 117.83828125 30.93833008 117.83496094 32.13696289 C117.82658203 33.3519043 117.81820312 34.5668457 117.80957031 35.81860352 C117.80505859 37.04514648 117.80054688 38.27168945 117.79589844 39.53540039 C117.78410097 42.5673502 117.76763952 45.59920258 117.74707031 48.63110352 C116.16238354 48.17747181 114.57937107 47.717989 112.99707031 47.25610352 C112.11535156 47.00086914 111.23363281 46.74563477 110.32519531 46.48266602 C107.98626459 45.71011011 105.9126447 44.79484676 103.74707031 43.63110352 C103.69099609 41.67817383 103.69099609 41.67817383 103.63378906 39.68579102 C103.56810357 37.95920094 103.50165713 36.23263971 103.43457031 34.50610352 C103.40073242 33.22219727 103.40073242 33.22219727 103.36621094 31.91235352 C103.15098208 26.82512603 102.73873069 22.93041928 99.74707031 18.63110352 C94.662702 14.35415414 90.78392488 14.04796765 84.43701172 14.08520508 C83.51929993 14.0748674 82.60158813 14.06452972 81.65606689 14.05387878 C78.63674225 14.02449037 75.61808913 14.02295243 72.59863281 14.02172852 C70.49969202 14.00674422 68.40076301 13.99001655 66.30184937 13.97161865 C60.78797865 13.92796113 55.27426699 13.90794946 49.76025391 13.8928833 C44.12946168 13.87330658 38.49884109 13.83133713 32.86816406 13.79125977 C21.82785244 13.71597484 10.78757926 13.66567285 -0.25292969 13.63110352 C-0.22150879 14.83271118 -0.22150879 14.83271118 -0.18945312 16.05859375 C-0.10571568 19.72846661 -0.05408601 23.39813768 -0.00292969 27.06860352 C0.03058594 28.32866211 0.06410156 29.5887207 0.09863281 30.88696289 C0.20794953 41.35403888 -1.73181425 49.08312704 -9.14794922 56.69873047 C-17.49821276 64.36427628 -26.7131662 64.26815133 -37.37792969 63.94360352 C-38.82580746 63.91846675 -40.2737277 63.89566314 -41.72167969 63.87524414 C-45.23299395 63.82072541 -48.74268164 63.73475885 -52.25292969 63.63110352 C-52.1923881 82.17246468 -52.11488318 100.71368105 -52.01721478 119.25488472 C-51.97226001 127.86400249 -51.93284461 136.47307892 -51.90649414 145.08227539 C-51.88351147 152.58654846 -51.85011045 160.09069067 -51.80422813 167.59485996 C-51.78029948 171.56782843 -51.76156838 175.54066733 -51.75531578 179.51370621 C-51.74926325 183.25497256 -51.72925764 186.99590742 -51.69865417 190.73705101 C-51.68569828 192.76120013 -51.68744343 194.78542671 -51.68965149 196.80961609 C-51.67711334 198.0210881 -51.6645752 199.23256012 -51.6516571 200.48074341 C-51.64474366 202.05424403 -51.64474366 202.05424403 -51.63769054 203.65953255 C-51.02562388 208.38662338 -49.24864381 211.64909089 -45.87658691 214.9747467 C-40.39643939 217.47969657 -35.23206329 217.17958903 -29.27441406 217.1328125 C-27.96644363 217.13821548 -26.65847321 217.14361847 -25.31086731 217.14918518 C-21.73431772 217.16311307 -18.15825064 217.15198924 -14.58172798 217.13547397 C-10.83292415 217.12159161 -7.08414743 217.12808717 -3.33532715 217.13160706 C2.95930732 217.13430667 9.25375082 217.1208551 15.54833984 217.09765625 C22.81818188 217.07104797 30.08770471 217.06930029 37.35757875 217.08104461 C44.36071626 217.09183662 51.36373868 217.08562419 58.36686707 217.07148933 C61.34281648 217.06574184 64.31868134 217.06580244 67.29463196 217.07055473 C71.45278192 217.07622812 75.61045815 217.05697483 79.76855469 217.03515625 C81.61558235 217.04190872 81.61558235 217.04190872 83.49992371 217.04879761 C91.55286993 217.02163184 91.55286993 217.02163184 98.74707031 213.63110352 C102.75754944 209.20574723 102.9825853 204.68460265 103.30957031 198.94360352 C103.35275391 198.24170898 103.3959375 197.53981445 103.44042969 196.81665039 C103.54624391 195.08835145 103.64713612 193.35975242 103.74707031 191.63110352 C105.51565722 190.95850001 107.28703047 190.29321956 109.05957031 189.63110352 C110.04570312 189.25985352 111.03183594 188.88860352 112.04785156 188.50610352 C114.74707031 187.63110352 114.74707031 187.63110352 117.74707031 187.63110352 C119.09573825 212.23910618 119.09573825 212.23910618 109.84863281 222.79907227 C101.61402544 230.69192716 92.96846709 231.07613202 82.05419922 231.05102539 C80.68009252 231.05837598 79.30599197 231.06696507 77.93190002 231.07669067 C74.2189556 231.09881146 70.50623371 231.10184214 66.79323244 231.09994316 C63.68460817 231.09982302 60.5760303 231.10840479 57.46741903 231.11672068 C50.12863814 231.13592078 42.78997099 231.13885098 35.45117188 231.13208008 C27.90065707 231.12544159 20.35063107 231.14830334 12.80021536 231.18539381 C6.29886153 231.21616252 -0.20233563 231.22744311 -6.70376074 231.223557 C-10.57849921 231.22149688 -14.45285712 231.22685355 -18.32752609 231.25144958 C-21.97381155 231.27383362 -25.61930621 231.27174384 -29.26559639 231.25152206 C-31.22694308 231.24652718 -33.18830531 231.26604619 -35.14955139 231.28652954 C-43.87026259 231.2042897 -50.88181776 229.73591098 -57.39130211 223.62300873 C-63.94238516 216.59755153 -66.34033206 209.87232742 -66.43374634 200.36457825 C-66.44812744 199.10161926 -66.46250854 197.83866028 -66.47732544 196.53742981 C-66.48813883 195.14523441 -66.49878383 193.75303769 -66.50927734 192.36083984 C-66.52373624 190.88865881 -66.53849403 189.41648069 -66.55352783 187.94430542 C-66.68363049 174.52154499 -66.74965207 161.09796907 -66.80137062 147.67470264 C-66.84027127 137.76121866 -66.90863866 127.84887125 -67.01591837 117.9358862 C-67.08890685 110.95481381 -67.12722621 103.97405136 -67.14039648 96.99261302 C-67.14923841 92.82785319 -67.17329789 88.66450146 -67.23506546 84.50016212 C-67.29257457 80.57862998 -67.30691348 76.65922246 -67.2891922 72.73733139 C-67.29006605 71.30464214 -67.306153 69.87186168 -67.33923721 68.43955421 C-67.5062464 60.80828316 -67.12794741 55.78720423 -61.93051147 49.94950867 C-60.39700352 48.4827066 -58.83879268 47.04113667 -57.25292969 45.63110352 C-55.95115467 44.30243512 -54.6565064 42.96668404 -53.37402344 41.61938477 C-52.14875204 40.39153114 -50.92092624 39.16622069 -49.69042969 37.94360352 C-49.08263672 37.33194336 -48.47484375 36.7202832 -47.84863281 36.09008789 C-44.77567035 33.02361531 -41.65068305 30.07473753 -38.35839844 27.24438477 C-33.7119757 23.22979893 -29.43136092 18.88210526 -25.12792969 14.50610352 C-23.58613034 12.93856461 -22.04191422 11.37339858 -20.49511719 9.81079102 C-19.82335449 9.12742676 -19.1515918 8.4440625 -18.45947266 7.73999023 C-17.73131348 7.04405762 -17.0031543 6.348125 -16.25292969 5.63110352 C-15.42888641 4.77562424 -14.60484314 3.92014496 -13.75582886 3.03874207 C-9.5558252 -0.41093837 -5.23104669 -0.06411855 0 0 Z " fill="#030303" transform="translate(331.2529296875,634.368896484375)"/>
<path d="M0 0 C9.15916768 7.27025921 14.33012974 16.24038921 18 27.25 C18.96096138 37.62043008 18.86704271 47.86573328 14 57.25 C13.5875 58.09691406 13.175 58.94382812 12.75 59.81640625 C6.53993223 71.37207214 -2.99912687 77.82627767 -15.16796875 81.9921875 C-26.0622132 84.97635202 -37.92656772 84.38115457 -48 79.25 C-51.13932584 77.41545646 -54.07857303 75.41138093 -57 73.25 C-57.86625 72.6725 -58.7325 72.095 -59.625 71.5 C-68.56170931 63.03364381 -73.9710324 51.42610318 -74.54077148 39.12207031 C-74.68241953 25.69574561 -69.42177029 13.81714814 -60.3125 4 C-55.75606185 -0.30426886 -50.66031591 -3.12812207 -45 -5.75 C-44.28199219 -6.09160156 -43.56398438 -6.43320312 -42.82421875 -6.78515625 C-28.65424759 -12.52252687 -12.16880894 -8.31202796 0 0 Z " fill="#FBFBFB" transform="translate(446,714.75)"/>
<path d="M0 0 C32.11111111 0 32.11111111 0 41.3125 6.25 C46.68381275 11.746227 48.25680502 16.27500526 48.5625 24 C48.33627072 31.29394408 46.57868089 35.51756725 41.40234375 40.5546875 C39.38834677 42.30641951 37.39122579 43.80438711 35 45 C36.36931978 48.8573846 38.14068603 51.79761962 40.59765625 55.0625 C44.98384767 60.97022901 49.22760591 66.96568768 53.4375 73 C54.15615234 74.02222656 54.87480469 75.04445313 55.61523438 76.09765625 C56.29779297 77.07605469 56.98035156 78.05445313 57.68359375 79.0625 C58.29775146 79.94035156 58.91190918 80.81820312 59.54467773 81.72265625 C61 84 61 84 62 87 C57.41343915 87.90580982 53.56334127 88.12562418 49 87 C45.2797482 83.48403948 42.85352961 79.48004084 40.26660156 75.09228516 C38.09729425 71.50883032 35.65637171 68.11420257 33.25 64.6875 C30.80946716 61.19463881 28.41784575 57.75809158 26.359375 54.0234375 C24.92650019 51.24145092 24.92650019 51.24145092 22 48 C18.37 47.67 14.74 47.34 11 47 C11 60.2 11 73.4 11 87 C7.37 87 3.74 87 0 87 C0 58.29 0 29.58 0 0 Z " fill="#FCFBFC" transform="translate(1144,706)"/>
<path d="M0 0 C5.62358277 5.62358277 5.62358277 5.62358277 7.875 8.79296875 C8.37870117 9.49663574 8.88240234 10.20030273 9.40136719 10.92529297 C9.92891602 11.67182129 10.45646484 12.41834961 11 13.1875 C12.15095358 14.79824003 13.30199789 16.40891523 14.453125 18.01953125 C15.03900391 18.84275879 15.62488281 19.66598633 16.22851562 20.51416016 C19.05380277 24.47875136 21.9010401 28.42740231 24.75 32.375 C25.2864917 33.12031982 25.8229834 33.86563965 26.37573242 34.63354492 C30.31998335 40.09998948 34.36375127 45.48097112 38.48828125 50.8125 C40 53 40 53 40 55 C44.51136294 50.85487317 47.74459237 46.21367081 51.125 41.125 C55.62868491 34.44147271 60.22221357 27.85593185 65.02563477 21.38476562 C67.33037581 18.27839397 69.60770822 15.1579771 71.8359375 11.99609375 C72.29395752 11.34680908 72.75197754 10.69752441 73.22387695 10.02856445 C74.09576552 8.78871125 74.96427173 7.54647039 75.82885742 6.30151367 C78.78060873 2.10969563 78.78060873 2.10969563 81 1 C81 30.37 81 59.74 81 90 C77.37 90 73.74 90 70 90 C69.67 71.52 69.34 53.04 69 34 C66.69 37.63 64.38 41.26 62 45 C59.87803052 48.02335964 57.74502942 51.02198162 55.5625 54 C55.00409424 54.76747559 54.44568848 55.53495117 53.87036133 56.32568359 C52.76229346 57.84801684 51.65288468 59.36937517 50.54199219 60.88964844 C49.15245063 62.79135794 47.76650694 64.69559655 46.3828125 66.6015625 C44.59089426 69.06943567 42.79671739 71.53562026 41 74 C37.72040591 70.92119738 35.12210249 67.55153904 32.5625 63.875 C31.68951298 62.63491591 30.81577471 61.39536044 29.94140625 60.15625 C29.4736377 59.49238281 29.00586914 58.82851563 28.52392578 58.14453125 C26.87475234 55.82374633 25.20380166 53.5198974 23.52734375 51.21875 C22.64937134 50.0124292 22.64937134 50.0124292 21.75366211 48.78173828 C20.60152094 47.2005316 19.44744448 45.6207329 18.29125977 44.04248047 C17.76201904 43.31432129 17.23277832 42.58616211 16.6875 41.8359375 C16.21699219 41.19188965 15.74648437 40.5478418 15.26171875 39.88427734 C14 38 14 38 12 34 C11.67 52.48 11.34 70.96 11 90 C7.37 90 3.74 90 0 90 C0 60.3 0 30.6 0 0 Z " fill="#F9F6F9" transform="translate(1421,703)"/>
<path d="M0 0 C4.43511569 3.80152773 8.13757245 7.05682749 11.9375 11.3125 C12.88685501 12.36563544 13.83745339 13.41765091 14.7890625 14.46875 C15.29985352 15.03335938 15.81064453 15.59796875 16.33691406 16.1796875 C19.45626375 19.59393754 22.63756647 22.95002406 25.8125 26.3125 C30.9697986 31.78103068 36.12058915 37.25528986 41.25 42.75 C41.7550708 43.29052002 42.2601416 43.83104004 42.78051758 44.38793945 C48.54615919 50.56833617 54.26681552 56.78905014 60 63 C60.33 43.2 60.66 23.4 61 3 C64.63 3 68.26 3 72 3 C72 32.7 72 62.4 72 93 C70.35 91.35 68.7 89.7 67 88 C65.97226621 86.98215119 64.94375718 85.9650838 63.9140625 84.94921875 C62.81767563 83.86201215 61.72132192 82.7747721 60.625 81.6875 C60.08617187 81.15705078 59.54734375 80.62660156 58.9921875 80.08007812 C55.42398011 76.53311007 52.08121228 72.84706232 48.79052734 69.04223633 C45.78253285 65.61138359 42.6386232 62.31098893 39.5 59 C38.09886771 57.51571054 36.69782846 56.03133325 35.296875 54.546875 C33.86462119 53.03121423 32.43232945 51.51558929 31 50 C28.24717338 47.08598317 25.49749516 44.16904342 22.75 41.25 C22.13060547 40.59515625 21.51121094 39.9403125 20.87304688 39.265625 C20.29103516 38.646875 19.70902344 38.028125 19.109375 37.390625 C18.60374023 36.85469727 18.09810547 36.31876953 17.57714844 35.76660156 C15.63055322 33.58617385 13.82593756 31.28242195 12 29 C11.67 49.13 11.34 69.26 11 90 C7.37 90 3.74 90 0 90 C0 60.3 0 30.6 0 0 Z " fill="#F8F5F8" transform="translate(839,703)"/>
<path d="M0 0 C3.96 0 7.92 0 12 0 C12 9.24 12 18.48 12 28 C21.9 28 31.8 28 42 28 C42 18.76 42 9.52 42 0 C45.96 0 49.92 0 54 0 C54.02312255 11.3261163 54.04091464 22.65222703 54.05181217 33.97836208 C54.05704119 39.23696664 54.06413918 44.4955551 54.07543945 49.75415039 C54.08626766 54.82453127 54.09227669 59.89489662 54.09487724 64.96528816 C54.09673161 66.90426948 54.10035245 68.84324991 54.10573006 70.78222466 C54.1129396 73.4882176 54.11399098 76.19414556 54.11352539 78.90014648 C54.11712067 79.71006546 54.12071594 80.51998444 54.12442017 81.35444641 C54.11405216 86.88594784 54.11405216 86.88594784 53 88 C49.37 88 45.74 88 42 88 C42 71.83 42 55.66 42 39 C32.1 39 22.2 39 12 39 C12.01160156 42.45339844 12.02320313 45.90679688 12.03515625 49.46484375 C12.04294569 52.79418852 12.04902309 56.12353229 12.05493164 59.45288086 C12.05997333 61.77417451 12.06680651 64.09546497 12.07543945 66.41674805 C12.08751225 69.74528795 12.09322979 73.07378602 12.09765625 76.40234375 C12.10281754 77.44712387 12.10797882 78.49190399 12.11329651 79.56834412 C12.11337204 80.52926468 12.11344757 81.49018524 12.11352539 82.48022461 C12.115746 83.33071884 12.11796661 84.18121307 12.12025452 85.05747986 C12 87 12 87 11 88 C7.37 88 3.74 88 0 88 C0 58.96 0 29.92 0 0 Z " fill="#F3EFF3" transform="translate(999,706)"/>
<path d="M0 0 C7.98611111 5.03472222 7.98611111 5.03472222 9.875 8.8125 C10.18982791 11.54975378 10.43466232 14.25403079 10.625 17 C10.72748047 18.1147168 10.72748047 18.1147168 10.83203125 19.25195312 C11.19954682 24.6280462 10.33944798 28.0169891 7.875 32.8125 C7.215 32.8125 6.555 32.8125 5.875 32.8125 C5.545 36.7725 5.215 40.7325 4.875 44.8125 C5.93460937 45.15023437 6.99421875 45.48796875 8.0859375 45.8359375 C9.47406164 46.28613992 10.86207687 46.73667825 12.25 47.1875 C13.29800781 47.52007813 13.29800781 47.52007813 14.3671875 47.859375 C19.6484375 49.5859375 19.6484375 49.5859375 21.875 51.8125 C15.55752008 60.11615732 8.21173862 64.88834519 -2.125 66.8125 C-13.93849579 67.93980091 -22.86298927 65.18506054 -32.125 57.8125 C-36.125 53.51981707 -36.125 53.51981707 -36.125 50.8125 C-34.98160156 50.43738281 -33.83820313 50.06226563 -32.66015625 49.67578125 C-31.168896 49.15993651 -29.67803041 48.64294982 -28.1875 48.125 C-27.43275391 47.88072266 -26.67800781 47.63644531 -25.90039062 47.38476562 C-21.57223301 45.9709438 -21.57223301 45.9709438 -18.97265625 42.4765625 C-19.16216544 39.16258135 -20.09909784 36.88190879 -21.5 33.875 C-23.37078982 29.82510584 -24.67048243 26.27326531 -25.125 21.8125 C-24.795 21.4825 -24.465 21.1525 -24.125 20.8125 C-24.0716273 19.12532967 -24.03250044 17.43770142 -24 15.75 C-23.47699617 9.26306534 -20.92659604 6.00747042 -16.125 1.8125 C-11.14524467 -2.27345309 -5.7965199 -2.20267756 0 0 Z " fill="#030303" transform="translate(425.125,721.1875)"/>
<path d="M0 0 C3.96 0 7.92 0 12 0 C12.0093457 1.96267822 12.01869141 3.92535645 12.02832031 5.94750977 C12.06391541 12.4496397 12.11775626 18.95142084 12.18390274 25.45330906 C12.2233253 29.3934496 12.25553907 33.33336842 12.27099609 37.27368164 C12.28619756 41.08003071 12.32070362 44.88577 12.36830902 48.69184685 C12.38308713 50.14016339 12.39103896 51.58856701 12.39188385 53.03695869 C12.29291462 63.70764689 12.29291462 63.70764689 17 73 C20.68498134 76.50522616 23.55351882 77.27642056 28.5 77.4375 C33.02137916 77.24731987 36.26486911 76.7330226 40 74 C43.98953296 68.82438967 45.11808712 65.13556527 45.20532227 58.69262695 C45.22526749 57.39150467 45.24521271 56.09038239 45.26576233 54.74983215 C45.28274546 53.3293164 45.29962431 51.9087994 45.31640625 50.48828125 C45.33698137 49.03524694 45.35797799 47.58221854 45.37937927 46.12919617 C45.43454234 42.3070047 45.48397698 38.48475974 45.53222656 34.66247559 C45.58248372 30.76126348 45.63814778 26.86012895 45.69335938 22.95898438 C45.80087041 15.30605531 45.90233098 7.65306167 46 0 C49.63 0 53.26 0 57 0 C57.09301169 8.58022294 57.1639218 17.16023238 57.20724869 25.74083614 C57.22805198 29.72592518 57.25623497 33.71066724 57.30175781 37.69555664 C57.34547727 41.54704217 57.36919159 45.39819567 57.37950897 49.24991035 C57.38685389 50.71342756 57.40119607 52.17692826 57.42292023 53.64030266 C57.57704358 64.46057195 56.48469861 73.27824518 48.79296875 81.42578125 C41.29689741 88.00729922 33.56305002 88.8767977 23.9453125 88.42578125 C18.87861839 87.87897961 16.16847886 86.88586998 12 84 C10.6696875 83.13375 10.6696875 83.13375 9.3125 82.25 C3.50476103 76.59922695 0.35024866 69.81946335 -0.24050903 61.69056702 C-0.23606781 60.55139328 -0.23162659 59.41221954 -0.22705078 58.23852539 C-0.22689972 56.93770523 -0.22674866 55.63688507 -0.22659302 54.29664612 C-0.21638281 52.89698123 -0.20595087 51.49731795 -0.1953125 50.09765625 C-0.19157733 48.65034685 -0.18873274 47.20303489 -0.18673706 45.75572205 C-0.17914024 41.96634813 -0.15952625 38.17713015 -0.1373291 34.38781738 C-0.11678503 30.51312366 -0.10771712 26.63840449 -0.09765625 22.76367188 C-0.07627614 15.17570229 -0.04112679 7.58789296 0 0 Z " fill="#F8F5F8" transform="translate(1342,706)"/>
<path d="M0 0 C14.52 0 29.04 0 44 0 C44 3.3 44 6.6 44 10 C33.44 10 22.88 10 12 10 C12 15.94 12 21.88 12 28 C20.25 28 28.5 28 37 28 C37 31.63 37 35.26 37 39 C28.75 39 20.5 39 12 39 C12 51.54 12 64.08 12 77 C22.56 77 33.12 77 44 77 C44 80.3 44 83.6 44 87 C29.48 87 14.96 87 0 87 C0 58.29 0 29.58 0 0 Z " fill="#F6F2F6" transform="translate(778,706)"/>
<path d="M0 0 C14.19 0 28.38 0 43 0 C43 3.3 43 6.6 43 10 C32.77 10 22.54 10 12 10 C12 15.94 12 21.88 12 28 C20.25 28 28.5 28 37 28 C37 31.63 37 35.26 37 39 C28.75 39 20.5 39 12 39 C12 51.54 12 64.08 12 77 C22.56 77 33.12 77 44 77 C44 80.3 44 83.6 44 87 C29.48 87 14.96 87 0 87 C0 58.29 0 29.58 0 0 Z " fill="#F6F3F6" transform="translate(1526,706)"/>
<path d="M0 0 C14.19 0 28.38 0 43 0 C43 3.3 43 6.6 43 10 C32.77 10 22.54 10 12 10 C12 15.94 12 21.88 12 28 C20.25 28 28.5 28 37 28 C37 31.63 37 35.26 37 39 C28.75 39 20.5 39 12 39 C12 51.54 12 64.08 12 77 C22.23 77 32.46 77 43 77 C43 80.3 43 83.6 43 87 C28.81 87 14.62 87 0 87 C0 58.29 0 29.58 0 0 Z " fill="#F7F4F7" transform="translate(1219,706)"/>
<path d="M0 0 C4.79347237 2.53095341 4.79347237 2.53095341 6.00390625 5.15625 C6.14651734 7.62204167 5.786136 9.605456 5.1875 12 C4.99285156 12.79921875 4.79820313 13.5984375 4.59765625 14.421875 C4.44167969 15.02515625 4.28570313 15.6284375 4.125 16.25 C0.36696327 16.25 -0.2016874 15.32885675 -2.875 12.8125 C-7.48863288 8.48721918 -11.13773979 7.80743502 -17.35546875 7.92578125 C-19.8889777 8.25179868 -21.38138046 8.66188517 -23.5 10.0625 C-26.45780487 14.03218548 -26.62507845 16.59786433 -26.76953125 21.43359375 C-24.92367607 27.24521641 -19.45269071 30.0731996 -14.28125 32.77734375 C-11.83178577 33.99814414 -9.37015671 35.18982218 -6.90234375 36.37304688 C0.70563981 40.17703865 7.14410139 44.9804103 10.125 53.25 C10.97771358 60.3021718 11.43264652 68.22297345 7.58984375 74.47265625 C2.98371919 80.06142071 -1.73629896 84.47828848 -8.875 86.25 C-18.79951389 87.18164903 -27.47207584 87.23541622 -35.875 81.25 C-37.48375 80.198125 -37.48375 80.198125 -39.125 79.125 C-41.61298616 75.03759416 -40.67300192 72.21722621 -39.68359375 67.67578125 C-38.875 65.25 -38.875 65.25 -36.875 63.25 C-36.36710937 63.86488281 -35.85921875 64.47976563 -35.3359375 65.11328125 C-29.08125928 72.62673561 -29.08125928 72.62673561 -20.046875 75.5546875 C-15.18118353 75.75842335 -11.75563667 75.66714369 -7.3125 73.5625 C-2.64391121 69.13332602 -1.54761903 65.91626921 -1.37890625 59.62890625 C-2.34434325 54.99936978 -4.27355018 52.30842258 -8.15307617 49.74438477 C-10.966219 48.17514688 -13.80977746 46.69734179 -16.6875 45.25 C-34.5104917 36.17905393 -34.5104917 36.17905393 -38.21484375 26.60546875 C-40.04760826 20.06607823 -39.26329501 14.46206923 -36.27734375 8.39453125 C-28.08801453 -4.12898334 -13.07402446 -6.20037567 0 0 Z " fill="#F9F6F9" transform="translate(1622.875,707.75)"/>
<path d="M0 0 C4.76992851 2.51852225 4.76992851 2.51852225 6.03515625 5.125 C6.15037539 7.85018322 5.53844758 9.91311935 4.6875 12.5 C4.40003906 13.39203125 4.11257813 14.2840625 3.81640625 15.203125 C3.58824219 15.87859375 3.36007812 16.5540625 3.125 17.25 C2.45404297 16.65251953 2.45404297 16.65251953 1.76953125 16.04296875 C-0.08815772 14.4150153 -1.97519 12.82848907 -3.875 11.25 C-4.6175 10.63125 -5.36 10.0125 -6.125 9.375 C-11.32344977 7.24836146 -17.30261776 7.4520514 -22.6328125 9.10546875 C-25.120208 10.10287655 -25.120208 10.10287655 -26.25 12.875 C-27.01972457 17.03151266 -27.26861336 20.22724287 -25.875 24.25 C-20.89929371 30.09965283 -13.67582971 33.12541182 -6.90234375 36.37304688 C0.70563981 40.17703865 7.14410139 44.9804103 10.125 53.25 C10.97771358 60.3021718 11.43264652 68.22297345 7.58984375 74.47265625 C2.98371919 80.06142071 -1.73629896 84.47828848 -8.875 86.25 C-18.79951389 87.18164903 -27.47207584 87.23541622 -35.875 81.25 C-37.48375 80.198125 -37.48375 80.198125 -39.125 79.125 C-41.61298616 75.03759416 -40.67300192 72.21722621 -39.68359375 67.67578125 C-38.875 65.25 -38.875 65.25 -36.875 63.25 C-36.36710937 63.86488281 -35.85921875 64.47976563 -35.3359375 65.11328125 C-29.17369346 72.56344069 -29.17369346 72.56344069 -20.26953125 75.51953125 C-14.79650064 75.71895342 -10.43358528 75.58555021 -5.875 72.25 C-2.16565562 68.15019831 -1.420894 64.91668634 -1.34375 59.59375 C-2.38508166 54.99963972 -4.280454 52.30414359 -8.15283203 49.74414062 C-10.96614778 48.17520565 -13.80977368 46.69734369 -16.6875 45.25 C-34.5104917 36.17905393 -34.5104917 36.17905393 -38.21484375 26.60546875 C-40.04760826 20.06607823 -39.26329501 14.46206923 -36.27734375 8.39453125 C-28.08801453 -4.12898334 -13.07402446 -6.20037567 0 0 Z " fill="#F9F7FA" transform="translate(1315.875,707.75)"/>
<path d="M0 0 C2.79462299 1.48167747 5.41817003 3.10547394 7.8125 5.1875 C7.29291715 9.56684119 6.75574258 13.87553391 5.8125 18.1875 C4.4925 17.5275 3.1725 16.8675 1.8125 16.1875 C1.8125 15.5275 1.8125 14.8675 1.8125 14.1875 C1.27625 13.919375 0.74 13.65125 0.1875 13.375 C-2.1875 12.1875 -2.1875 12.1875 -4.8125 10.5625 C-9.34644034 8.71533912 -13.3524697 8.4380703 -18.1875 9.1875 C-21.12173195 10.98396854 -22.65955355 12.1316071 -24.1875 15.1875 C-24.46124623 17.22701356 -24.46124623 17.22701356 -24.5 19.5 C-24.53738281 20.25925781 -24.57476563 21.01851562 -24.61328125 21.80078125 C-23.97772873 25.36337381 -22.81313569 26.64295012 -20.1875 29.1875 C-15.75335731 31.92457233 -11.07594936 34.2035713 -6.42773438 36.55078125 C1.5855824 40.72833976 8.62220465 45.33700321 11.8125 54.1875 C12.79670089 62.3271074 12.95268793 70.45670017 7.8125 77.1875 C3.78024875 81.8564225 -0.97094732 86.0800133 -7.1875 87.1875 C-17.19571867 87.91574876 -25.67890749 88.2024852 -34.1875 82.1875 C-35.280625 81.5275 -36.37375 80.8675 -37.5 80.1875 C-40.10822399 75.55065735 -38.39852681 71.80556835 -37.01953125 66.85546875 C-36.74496094 65.97503906 -36.47039063 65.09460938 -36.1875 64.1875 C-35.48625 64.909375 -34.785 65.63125 -34.0625 66.375 C-28.38294168 72.03846892 -23.66111438 76.45628353 -15.3125 76.5625 C-10.1258875 76.4677385 -7.07023473 75.87112013 -3.1875 72.1875 C0.16944823 68.38295867 0.22127613 64.6484277 0.40625 59.78515625 C-0.64871152 55.16969959 -3.36734242 52.348739 -7.25048828 49.87133789 C-9.63920558 48.57709019 -12.05316664 47.3680733 -14.5 46.1875 C-24.45570814 41.3157249 -32.87517904 37.02035589 -36.9375 26.1875 C-37.83083421 19.0408263 -36.77734352 13.42722802 -33.1875 7.1875 C-24.76445117 -2.37855129 -11.85287016 -5.14741949 0 0 Z " fill="#F9F7FA" transform="translate(969.1875,706.8125)"/>
<path d="M0 0 C1.39334312 -0.01029488 1.39334312 -0.01029488 2.81483459 -0.02079773 C5.88590778 -0.03910149 8.95647185 -0.03522304 12.02758789 -0.02954102 C14.16223823 -0.03410115 16.29688709 -0.03940622 18.43153381 -0.04542542 C22.90623945 -0.0543636 27.38076668 -0.05192534 31.85546875 -0.04199219 C37.59014432 -0.0305027 43.32420413 -0.05071043 49.05879879 -0.07990932 C53.46745212 -0.09825457 57.87595744 -0.09798216 62.28463936 -0.0922718 C64.39895046 -0.09211838 66.51327146 -0.09818014 68.62754631 -0.11056328 C71.5841218 -0.12543924 74.53955407 -0.11482079 77.49609375 -0.09765625 C78.36950409 -0.10732422 79.24291443 -0.11699219 80.14279175 -0.12695312 C84.18072616 -0.07785932 86.34322535 0.12948022 89.89894104 2.20884705 C91.81274414 4.40405273 91.81274414 4.40405273 91.75024414 8.02905273 C90.81274414 11.40405273 90.81274414 11.40405273 88.81274414 13.40405273 C85.69465922 13.60835677 82.66502819 13.6871684 79.54541016 13.67871094 C78.5843335 13.68382187 77.62325684 13.6889328 76.63305664 13.69419861 C73.44419187 13.70814147 70.25554209 13.7071343 67.06665039 13.70483398 C64.85709044 13.70871836 62.64753124 13.71305248 60.43797302 13.71781921 C55.80172304 13.72529155 51.1655492 13.72498283 46.52929688 13.71972656 C40.57924549 13.71393086 34.62950527 13.73086064 28.67950535 13.75407124 C24.1148241 13.76878193 19.55021825 13.7696839 14.9855175 13.76656151 C12.79140545 13.76707607 10.59728932 13.77233895 8.40320015 13.78237343 C5.3384169 13.79466875 2.27424564 13.78798759 -0.79052734 13.77636719 C-1.70232254 13.78401093 -2.61411774 13.79165466 -3.55354309 13.79953003 C-4.38777802 13.79251572 -5.22201294 13.7855014 -6.08152771 13.77827454 C-6.80622474 13.77844228 -7.53092176 13.77861002 -8.27757931 13.77878284 C-10.7869308 13.28638032 -11.66589908 12.43378171 -13.18725586 10.40405273 C-13.62475586 6.90405273 -13.62475586 6.90405273 -13.18725586 3.40405273 C-9.67192579 -0.69272998 -4.97687454 -0.02559202 0 0 Z " fill="#000000" transform="translate(307.187255859375,823.595947265625)"/>
<path d="M0 0 C3.2578125 -0.29296875 3.2578125 -0.29296875 7.125 -0.1875 C9.04699219 -0.14689453 9.04699219 -0.14689453 11.0078125 -0.10546875 C11.99523437 -0.07066406 12.98265625 -0.03585937 14 0 C10.58654426 4.81384783 7.01762616 9.12025052 2.78125 13.2265625 C0.33238664 15.66468523 -1.90894446 18.25614453 -4.15234375 20.8828125 C-5.48430507 22.40907684 -6.85702874 23.90010297 -8.25390625 25.3671875 C-8.99511719 26.15351562 -9.73632812 26.93984375 -10.5 27.75 C-11.1909375 28.46671875 -11.881875 29.1834375 -12.59375 29.921875 C-14.17096463 31.83575887 -14.17096463 31.83575887 -14.00390625 33.83984375 C-12.50045495 37.07489655 -10.49370966 39.91352166 -8.4375 42.8125 C-7.96151367 43.49393066 -7.48552734 44.17536133 -6.99511719 44.87744141 C-5.92925725 46.40283983 -4.8609087 47.92650135 -3.79052734 49.44873047 C-1.83723906 52.23191325 0.10387141 55.02331891 2.04296875 57.81640625 C4.76067918 61.7308027 7.47988253 65.64413722 10.203125 69.5546875 C10.82896484 70.45541992 11.45480469 71.35615234 12.09960938 72.28417969 C13.4027615 74.14649523 14.71717967 76.0009632 16.04101562 77.84863281 C16.68232422 78.74678711 17.32363281 79.64494141 17.984375 80.5703125 C18.85400879 81.7771167 18.85400879 81.7771167 19.74121094 83.00830078 C21 85 21 85 21 87 C16.4750718 87.75532032 12.51044432 87.93390315 8 87 C4.61284876 84.25182721 2.57462493 80.84466087 0.32714844 77.13623047 C-1.77009728 73.76042105 -4.05414272 70.51622969 -6.31274414 67.24707031 C-8.26147307 64.4208608 -10.19010663 61.58193105 -12.11328125 58.73828125 C-15.8693529 53.18767348 -19.64981633 47.65406861 -23.4375 42.125 C-24.51955502 40.5442871 -25.6015887 38.9635596 -26.68359375 37.3828125 C-27.45570129 36.25518925 -28.22782487 35.12757697 -29 34 C-25.02395643 28.46969311 -20.76681506 23.4203689 -16.0625 18.5 C-14.82856666 17.19352045 -13.59548437 15.88623654 -12.36328125 14.578125 C-11.78143066 13.96130859 -11.19958008 13.34449219 -10.60009766 12.70898438 C-6.80225852 8.65270211 -3.08426804 4.62640207 0 0 Z " fill="#FAF8FB" transform="translate(744,706)"/>
<path d="M0 0 C3.63 0 7.26 0 11 0 C11 28.71 11 57.42 11 87 C7.37 87 3.74 87 0 87 C0 58.29 0 29.58 0 0 Z " fill="#FEFEFE" transform="translate(1078,706)"/>
<path d="M0 0 C3.63 0 7.26 0 11 0 C11 28.71 11 57.42 11 87 C7.37 87 3.74 87 0 87 C0 58.29 0 29.58 0 0 Z " fill="#FEFEFE" transform="translate(703,706)"/>
<path d="M0 0 C1.14541763 -0.03843018 2.29083527 -0.07686035 3.47096252 -0.11645508 C5.32406288 -0.14195435 5.32406288 -0.14195435 7.21459961 -0.16796875 C8.49241806 -0.19076904 9.77023651 -0.21356934 11.08677673 -0.23706055 C13.79440631 -0.27904045 16.5015637 -0.30244337 19.20947266 -0.31640625 C21.97074857 -0.33391963 24.72700256 -0.3893057 27.48681641 -0.48046875 C51.58490238 -1.26250493 51.58490238 -1.26250493 57.59301758 3.31640625 C60.98794355 6.62205614 63.19739027 10.43042508 65.30444336 14.64453125 C56.26403868 14.76045747 47.22389042 14.84926233 38.18290424 14.90359211 C33.98462455 14.92966987 29.78685391 14.96503348 25.58886719 15.02172852 C21.53638404 15.07611506 17.48439003 15.1059655 13.43157005 15.11891747 C11.88657112 15.12814559 10.34159853 15.14616661 8.79680824 15.17318153 C6.62990422 15.20956364 4.4650126 15.21447329 2.29785156 15.2121582 C1.06541214 15.22326126 -0.16702728 15.23436432 -1.43681335 15.24580383 C-5.60835685 14.47610996 -7.08269035 12.91322225 -9.69555664 9.64453125 C-10.25805664 7.08203125 -10.25805664 7.08203125 -9.69555664 4.64453125 C-6.70999226 0.88931867 -4.74112384 0.12870863 0 0 Z " fill="#0C0C0C" transform="translate(303.695556640625,796.35546875)"/>
<path d="M0 0 C1.1471196 0.00565979 2.2942392 0.01131958 3.47612 0.01715088 C7.13424688 0.03951303 10.79138869 0.08971173 14.44921875 0.140625 C16.93162646 0.16069009 19.41404955 0.17894084 21.89648438 0.1953125 C27.9768977 0.23937741 34.05673784 0.30628906 40.13671875 0.390625 C38.60198907 5.11287016 36.89726749 9.74917831 35.13671875 14.390625 C28.37415363 14.49201175 21.61178436 14.56208471 14.84863281 14.61035156 C12.54777706 14.63047188 10.24697246 14.65777134 7.94628906 14.69238281 C4.63984558 14.74088112 1.3340779 14.76358978 -1.97265625 14.78125 C-3.00195251 14.80189514 -4.03124878 14.82254028 -5.09173584 14.84381104 C-12.20738381 14.8460488 -12.20738381 14.8460488 -15.50878906 12.55371094 C-17.38673731 9.55468038 -17.51390414 7.86061377 -16.86328125 4.390625 C-12.34006211 -1.06408054 -6.5035062 -0.12078281 0 0 Z " fill="#0B0B0B" transform="translate(310.86328125,715.609375)"/>
<path d="M0 0 C1.03755432 0.00565979 2.07510864 0.01131958 3.144104 0.01715088 C6.45591492 0.03953009 9.76664144 0.08973081 13.078125 0.140625 C15.32420312 0.16068794 17.57029821 0.17893906 19.81640625 0.1953125 C25.32068209 0.23939982 30.82432607 0.30632759 36.328125 0.390625 C36.99844219 2.3477118 37.66427183 4.30633613 38.328125 6.265625 C38.699375 7.35617187 39.070625 8.44671875 39.453125 9.5703125 C40.328125 12.390625 40.328125 12.390625 40.328125 14.390625 C33.29910562 14.51746315 26.2703816 14.60499244 19.24047852 14.6652832 C16.84941581 14.69041815 14.45842986 14.72453133 12.06762695 14.76782227 C8.62952736 14.82851561 5.19244404 14.85684572 1.75390625 14.87890625 C0.68602371 14.90471268 -0.38185883 14.9305191 -1.48210144 14.95710754 C-8.90839127 14.95991027 -8.90839127 14.95991027 -12.85083008 12.02026367 C-14.671875 9.390625 -14.671875 9.390625 -15.234375 6.828125 C-13.40173342 -1.11332186 -6.66658475 -0.13661854 0 0 Z " fill="#0B0B0B" transform="translate(308.671875,769.609375)"/>
<path d="M0 0 C17.41626794 -0.62200957 17.41626794 -0.62200957 23 4 C26.08484245 7.39332669 26.91306285 9.39143998 27.5625 13.9375 C27.28367527 18.63254863 25.41725259 21.82623715 22 25 C14.44074978 29.26066831 9.47341722 28 0 28 C0 18.76 0 9.52 0 0 Z " fill="#050405" transform="translate(1155,716)"/>
<path d="M0 0 C0.97096619 0.00565979 1.94193237 0.01131958 2.94232178 0.01715088 C6.04017669 0.03952189 9.13687033 0.08972027 12.234375 0.140625 C14.33592078 0.16068903 16.43748472 0.17893997 18.5390625 0.1953125 C23.6879467 0.2393892 28.83596403 0.30842242 33.984375 0.390625 C33.984375 5.010625 33.984375 9.630625 33.984375 14.390625 C27.95214297 14.51436895 21.92065215 14.60503313 15.88745117 14.6652832 C13.83588794 14.69040306 11.78441399 14.72450536 9.7331543 14.76782227 C6.78151409 14.82858502 3.8310585 14.85685992 0.87890625 14.87890625 C-0.03585983 14.90471268 -0.95062592 14.9305191 -1.89311218 14.95710754 C-6.44845826 14.95910675 -8.38158027 14.87806979 -12.09887695 12.02026367 C-14.015625 9.390625 -14.015625 9.390625 -14.578125 6.828125 C-12.79902113 -0.88132509 -6.50967229 -0.14269796 0 0 Z " fill="#0A0A0A" transform="translate(308.015625,742.609375)"/>
<path d="M0 0 C1.16015625 0.00966797 2.3203125 0.01933594 3.515625 0.02929688 C4.7221875 0.05443359 5.92875 0.07957031 7.171875 0.10546875 C9.00492187 0.12577148 9.00492187 0.12577148 10.875 0.14648438 C13.89106998 0.18182895 16.90624987 0.23117315 19.921875 0.29296875 C19.921875 0.95296875 19.921875 1.61296875 19.921875 2.29296875 C18.3828125 3.58984375 18.3828125 3.58984375 16.296875 5.04296875 C13.44696398 7.05525375 11.36245335 8.92164134 9.234375 11.66796875 C7.06628459 13.9625311 5.96244301 14.28679317 2.765625 14.7734375 C-6.08146249 14.97895613 -6.08146249 14.97895613 -8.9453125 13.0078125 C-10.30181658 10.95434599 -10.51098523 9.74276711 -10.515625 7.29296875 C-10.53496094 6.61234375 -10.55429687 5.93171875 -10.57421875 5.23046875 C-9.25750676 0.08803451 -4.54804171 -0.06688297 0 0 Z " fill="#101010" transform="translate(355.078125,688.70703125)"/>
</svg>
